<?xml version="1.0" encoding="utf-8"?>
<!-- Generator: Adobe Illustrator 16.0.0, SVG Export Plug-In . SVG Version: 6.00 Build 0)  -->
<!DOCTYPE svg PUBLIC "-//W3C//DTD SVG 1.1//EN" "http://www.w3.org/Graphics/SVG/1.1/DTD/svg11.dtd">
<svg version="1.1" id="Layer_1" xmlns="http://www.w3.org/2000/svg" xmlns:xlink="http://www.w3.org/1999/xlink" x="0px" y="0px"
	 width="1250px" height="750px" viewBox="0 0 1250 750" enable-background="new 0 0 1250 750" xml:space="preserve">
<g id="Bg">
</g>
<g id="Object">
	<g>
		<g id="XMLID_131_">
			<path fill="#DB7966" d="M1171.115,360.704h-107.119l0,0h-55.517c-7.066,0-12.795-5.729-12.795-12.795
				c0-7.067,5.729-12.796,12.795-12.796h55.517h51.989c11.562,0,20.938-9.374,20.938-20.936l0,0
				c0-11.562-9.373-20.938-20.938-20.938h-71.799h-220.35H264.898c-10.938,0-19.81,8.869-19.81,19.809v133.256
				c0,10.938,8.869,19.81,19.81,19.81h560.947c1.906,0.571,3.926-0.1,6.018-0.1h292.149c11.562,0,20.936-8.394,20.936-19.954l0,0
				c0-11.562-9.373-20.938-20.936-20.938h-85.54c-2.763-2.348-4.519-5.845-4.519-9.753c0-7.064,5.729-12.795,12.797-12.796h124.363
				c11.562,0,20.938-9.373,20.938-20.936l0,0C1192.052,370.077,1182.678,360.704,1171.115,360.704z"/>
		</g>
		<g id="x-group">
			<g id="XMLID_129_">
				<g id="XMLID_68_">
					<path fill="#55A9A4" d="M461.603,114.774c-0.852,0-1.703-0.325-2.353-0.977c-1.301-1.3-1.301-3.405,0-4.707l23.847-23.847
						c1.3-1.299,3.406-1.299,4.707,0c1.299,1.3,1.299,3.407,0,4.707l-23.85,23.849C463.307,114.449,462.453,114.774,461.603,114.774
						z"/>
				</g>
				<g id="XMLID_67_">
					<path fill="#55A9A4" d="M485.448,114.774c-0.853,0-1.704-0.325-2.354-0.977L459.25,89.953c-1.301-1.3-1.301-3.407,0-4.707
						c1.3-1.299,3.405-1.299,4.704,0l23.849,23.849c1.299,1.3,1.299,3.405,0,4.705C487.153,114.449,486.302,114.774,485.448,114.774
						z"/>
				</g>
			</g>
			<g id="XMLID_130_">
				<g id="XMLID_66_">
					<path fill="#55A9A4" d="M789.629,569.443c-0.854,0-1.703-0.325-2.354-0.975c-1.3-1.3-1.3-3.406,0-4.706l23.847-23.847
						c1.302-1.302,3.406-1.302,4.706,0c1.302,1.3,1.302,3.404,0,4.704l-23.846,23.849
						C791.33,569.118,790.48,569.443,789.629,569.443z"/>
				</g>
				<g id="XMLID_65_">
					<path fill="#55A9A4" d="M813.476,569.443c-0.854,0-1.704-0.325-2.354-0.975l-23.847-23.849c-1.3-1.3-1.3-3.404,0-4.705
						s3.406-1.301,4.707,0l23.846,23.848c1.302,1.3,1.302,3.405,0,4.706C815.179,569.118,814.325,569.443,813.476,569.443z"/>
				</g>
			</g>
			<g id="XMLID_135_">
				<g id="XMLID_61_">
					<path fill="#55A9A4" d="M1055.412,154.501c-0.852,0-1.701-0.323-2.354-0.975c-1.299-1.3-1.299-3.407,0-4.707l23.847-23.846
						c1.302-1.302,3.407-1.302,4.707,0c1.302,1.299,1.302,3.404,0,4.706l-23.847,23.847
						C1057.115,154.177,1056.266,154.501,1055.412,154.501z"/>
				</g>
				<g id="XMLID_60_">
					<path fill="#55A9A4" d="M1079.261,154.501c-0.854,0-1.703-0.323-2.354-0.975l-23.847-23.847c-1.299-1.302-1.299-3.407,0-4.706
						c1.301-1.302,3.407-1.302,4.707,0l23.847,23.846c1.301,1.3,1.301,3.407,0,4.707
						C1080.964,154.177,1080.112,154.501,1079.261,154.501z"/>
				</g>
			</g>
			<g id="XMLID_153_">
				<g id="XMLID_59_">
					<path fill="#55A9A4" d="M273.665,590.844c-0.854,0-1.703-0.325-2.354-0.977c-1.3-1.3-1.3-3.405,0-4.706l23.848-23.847
						c1.3-1.3,3.405-1.3,4.704,0c1.3,1.3,1.3,3.406,0,4.706l-23.846,23.847C275.368,590.517,274.517,590.844,273.665,590.844z"/>
				</g>
				<g id="XMLID_58_">
					<path fill="#55A9A4" d="M297.512,590.844c-0.852,0-1.704-0.325-2.354-0.977l-23.848-23.847c-1.3-1.3-1.3-3.406,0-4.706
						c1.299-1.3,3.406-1.3,4.707,0l23.846,23.847c1.299,1.301,1.299,3.406,0,4.706C299.215,590.517,298.363,590.844,297.512,590.844
						z"/>
				</g>
			</g>
		</g>
		<g id="XMLID_51_">
			<path fill="#55A9A4" d="M1001.787,527.074h-61.186c-1.838,0-3.327-1.49-3.327-3.328s1.489-3.325,3.327-3.325h61.186
				c1.84,0,3.327,1.487,3.327,3.325S1003.627,527.074,1001.787,527.074z"/>
		</g>
		<g id="XMLID_50_">
			<path fill="#55A9A4" d="M789.692,198.702h-69.808c-1.838,0-3.328-1.49-3.328-3.328s1.49-3.328,3.328-3.328h69.808
				c1.839,0,3.328,1.49,3.328,3.328S791.531,198.702,789.692,198.702z"/>
		</g>
		<g id="XMLID_49_">
			<path fill="#55A9A4" d="M595.474,608.851h-56.953c-1.838,0-3.328-1.49-3.328-3.328s1.49-3.328,3.328-3.328h56.953
				c1.838,0,3.328,1.49,3.328,3.328S597.312,608.851,595.474,608.851z"/>
		</g>
		<g id="XMLID_151_">
			<g>
				<path fill="#FFFFFF" d="M587.901,331.944c7.831-7.831,12.236-10.441,19.415-11.747c1.305-0.652,4.568-0.652,7.179-0.652
					c10.278,0.652,17.457,5.06,19.414,13.541c1.958,5.223,1.795,10.441,0.49,14.357c-0.979,7.342-14.194,5.874-16.805,0.653
					c-1.958-1.307-1.958-1.307-1.307-7.831c0.653-5.223,0.653-6.526-0.65-6.526c-1.305,0-6.363,4.568-10.933,9.136
					c-10.931,12.891-14.192,21.372-10.276,25.94c0.651,1.305,5.058,3.752,10.931,7.015c15.499,7.831,20.719,12.236,25.288,20.72
					c7.016,25.94-9.789,32.958-19.415,36.221c-7.178,1.958-13.541,1.306-19.415-1.305c-8.646-3.59-13.704-14.849-13.704-18.109
					c0-5.222,2.61-7.018,9.138-6.363c6.524,0.653,10.276,3.753,10.276,8.32c0.652,4.566,9.136,1.306,13.052-5.223
					c2.61-4.565,2.61-8.318,0-12.889c-2.608-3.263-5.221-5.058-18.107-11.583c-14.846-7.179-19.415-12.397-20.72-22.023
					C570.444,355.111,577.621,341.57,587.901,331.944z"/>
			</g>
			<g>
				<path fill="#FFFFFF" d="M650.062,327.376c3.589-1.795,17.62-4.729,32.14-7.179c12.073-1.142,15.175-1.305,19.414,1.795
					c4.896,3.916,1.796,8.812,0.49,8.973c-16.805,1.797-36.871,4.896-36.871,4.896c-0.65,0-0.65,20.067-1.306,24.961
					c0,7.342,0,8.484,0.653,8.484c0.65,0.65,13.865-3.102,15.659-3.102c7.345,0,12.236,4.896,10.442,9.136
					c-1.143,2.448-12.727,6.037-24.311,8.484c-3.101,0.653-3.101,0.489-3.101,9.626c0.652,10.278,1.307,15.173,3.101,19.414
					c1.796,4.896,1.307,4.896,10.932-2.937c4.895-3.591,7.994-4.896,13.379-3.102c5.383,1.795,7.178,5.384,4.729,10.278
					c-1.795,3.589-8.481,9.789-12.725,11.583c-35.564,16.315-38.829-19.414-39.318-27.897c-1.306-20.065,3.591-63.628,4.241-66.074
					c0.652-0.651,0.652-1.795,0-2.446C646.962,331.129,648.267,328.519,650.062,327.376z"/>
			</g>
			<g>
				<path fill="#FFFFFF" d="M756.434,374.2c-2.609-57.754-2.609-55.633,1.306-57.754c11.257-2.447,13.705,2.774,14.356,4.079
					c0.653,1.306,4.568,81.737,4.568,87.121c1.306,15.662,1.306,15.989-1.307,18.109c-2.609,2.121-7.179,2.121-12.397,0
					c-7.181-3.428-30.184-35.729-32.468-38.667c0.652,4.078,1.797,39.973,1.144,42.746c-0.652,4.076-1.794,5.547-6.362,5.547
					c-4.566,0.65-9.789-1.307-11.094-4.731c-0.653-1.305-1.307-8.32-1.958-40.786c-0.653-60.528-0.653-56.287,0.651-58.407
					c1.307-1.305,2.609-1.305,4.567-1.305c5.221,0,9.789,3.263,10.441,9.462c0,2.121,1.142,4.731,3.1,8.157
					c1.307,2.772,25.45,50.25,26.104,49.597C757.087,397.366,757.087,387.089,756.434,374.2z"/>
			</g>
			<g>
				<path fill="#FFFFFF" d="M787.434,318.403c0.652-1.305,1.795-3.263,3.916-3.916c3.916-0.653,10.604,1.305,11.909,2.61
					c0,0.65,2.608,0.65,5.222,0.65c45.844,0.979,46.496,40.787,47.149,48.618c0.65,11.257-2.284,22.514-6.526,32.792
					c-5.873,14.031-22.188,28.227-26.756,31.487c-11.584,7.994-21.861,0-22.516-3.915c0-0.653-0.488-2.61-1.143-3.916
					c-2.121-3.263-7.342-45.191-7.342-47.312c-1.305-5.221-3.264-37.359-3.916-41.929c0-2.61,0-3.263-1.305-5.384
					c-3.266-3.264-3.102-5.873-0.489-7.178C786.944,320.361,787.434,319.056,787.434,318.403z M836.052,368.163
					c1.306-15.825-5.223-28.714-17.62-35.401c-2.121-1.307-4.73-1.958-7.342-1.958c-4.567-0.652-4.567-0.815-3.915,1.305
					c3.263,48.618,7.668,71.622,9.136,76.68C835.072,393.94,836.052,372.079,836.052,368.163z"/>
			</g>
		</g>
		<g id="o-group">
			<g id="XMLID_62_">
				<path fill="#55A9A4" d="M671.99,211.55c-8.92,0-16.176-7.257-16.176-16.176c0-8.92,7.256-16.176,16.176-16.176
					s16.179,7.256,16.179,16.176C688.168,204.293,680.909,211.55,671.99,211.55z M671.99,185.853c-5.25,0-9.521,4.271-9.521,9.521
					s4.271,9.521,9.521,9.521s9.521-4.271,9.521-9.521S677.24,185.853,671.99,185.853z"/>
			</g>
			<g id="XMLID_55_">
				<path fill="#55A9A4" d="M1111.65,607.851c-6.238,0-11.312-5.076-11.312-11.314c0-6.237,5.075-11.312,11.312-11.312
					c6.238,0,11.314,5.075,11.314,11.312C1122.965,602.774,1117.889,607.851,1111.65,607.851z M1111.65,589.879
					c-3.672,0-6.66,2.985-6.66,6.657c0,3.673,2.988,6.659,6.66,6.659s6.658-2.986,6.658-6.659
					C1118.308,592.864,1115.322,589.879,1111.65,589.879z"/>
			</g>
			<g id="XMLID_52_">
				<path fill="#55A9A4" d="M498.228,621.699c-8.92,0-16.176-7.257-16.176-16.177s7.256-16.176,16.176-16.176
					c8.919,0,16.176,7.256,16.176,16.176S507.147,621.699,498.228,621.699z M498.228,596.004c-5.25,0-9.521,4.271-9.521,9.521
					s4.271,9.521,9.521,9.521s9.521-4.271,9.521-9.521S503.478,596.004,498.228,596.004z"/>
			</g>
			<g id="XMLID_46_">
				<path fill="#55A9A4" d="M187.918,138.642c-6.239,0-11.314-5.076-11.314-11.314s5.076-11.312,11.314-11.312
					c6.236,0,11.312,5.074,11.312,11.312S194.157,138.642,187.918,138.642z M187.918,120.668c-3.672,0-6.659,2.987-6.659,6.659
					s2.987,6.659,6.659,6.659s6.659-2.987,6.659-6.659S191.59,120.668,187.918,120.668z"/>
			</g>
		</g>
		<g id="bird">
			<g id="XMLID_497_">
				<polygon fill="#55A9A4" points="151.2,157.554 239.129,357.671 435.197,330.76 				"/>
				<path fill="#2F2F2F" d="M239.127,360.459c-1.093,0-2.104-0.644-2.551-1.667l-87.931-200.115c-0.488-1.115-0.2-2.421,0.717-3.222
					c0.917-0.802,2.249-0.915,3.288-0.282l283.996,173.206c1.007,0.614,1.52,1.795,1.278,2.95c-0.241,1.154-1.184,2.033-2.352,2.193
					l-196.066,26.911C239.381,360.451,239.253,360.459,239.127,360.459z M157.321,164.553l83.516,190.068l186.224-25.56
					L157.321,164.553z"/>
			</g>
			<g id="XMLID_496_">
				<polygon fill="#55A9A4" points="198.332,495.507 239.861,357.571 435.929,330.659 				"/>
				<path fill="#2F2F2F" d="M198.332,498.295c-0.576,0-1.151-0.18-1.641-0.532c-0.959-0.697-1.373-1.924-1.029-3.062l41.527-137.934
					c0.314-1.045,1.21-1.812,2.291-1.958l196.068-26.912c1.273-0.174,2.509,0.549,2.977,1.75c0.468,1.202,0.051,2.566-1.009,3.303
					L199.921,497.798C199.443,498.13,198.887,498.295,198.332,498.295z M242.015,360.089l-38.71,128.573l221.471-153.658
					L242.015,360.089z"/>
			</g>
			<g id="XMLID_495_">
				<polygon fill="#55A9A4" points="435.739,330 461.165,198.579 330.854,266.607 				"/>
				<path fill="#2F2F2F" d="M435.739,332.932c-0.525,0-1.052-0.144-1.517-0.422l-104.885-63.395
					c-0.906-0.548-1.447-1.542-1.414-2.601c0.031-1.061,0.634-2.019,1.571-2.509l130.313-68.026
					c0.999-0.521,2.206-0.424,3.108,0.248c0.901,0.673,1.341,1.803,1.127,2.908l-25.43,131.421
					c-0.182,0.939-0.812,1.731-1.688,2.122C436.549,332.848,436.144,332.932,435.739,332.932z M336.829,266.794l96.828,58.523
					l23.476-121.325L336.829,266.794z"/>
			</g>
			<g id="XMLID_494_">
				<polygon fill="#55A9A4" points="461.165,198.579 507.2,243.9 450.903,251.627 				"/>
				<path fill="#2F2F2F" d="M450.903,254.559c-0.8,0-1.571-0.327-2.129-0.916c-0.65-0.688-0.929-1.646-0.75-2.573l10.264-53.048
					c0.205-1.062,0.979-1.922,2.011-2.243c1.031-0.32,2.155-0.047,2.926,0.71l46.034,45.321c0.796,0.784,1.078,1.953,0.726,3.013
					c-0.352,1.062-1.274,1.829-2.384,1.981l-56.298,7.727C451.169,254.55,451.034,254.559,450.903,254.559z M463.007,204.504
					l-8.448,43.662l46.336-6.358L463.007,204.504z"/>
			</g>
			<g id="XMLID_493_">
				<polygon fill="#55A9A4" points="239.861,357.571 60.737,260.494 198.887,266.084 				"/>
				<path fill="#2F2F2F" d="M239.861,360.359c-0.452,0-0.909-0.11-1.327-0.337L59.408,262.945c-1.142-0.618-1.704-1.94-1.36-3.191
					c0.344-1.25,1.499-2.095,2.801-2.046l138.15,5.59c1.057,0.043,2,0.683,2.432,1.646l40.975,91.487
					c0.488,1.091,0.229,2.372-0.647,3.184C241.229,360.105,240.548,360.359,239.861,360.359z M72.625,263.766l161.326,87.431
					L197.048,268.8L72.625,263.766z"/>
			</g>
		</g>
		<g id="XMLID_14_">
			<g id="XMLID_2303_">
				<polygon fill="#F9F9F9" points="168.07,188.696 255.999,388.813 452.067,361.902 				"/>
				<path fill="#2F2F2F" d="M255.998,391.602c-1.095,0-2.104-0.646-2.553-1.667l-87.929-200.117
					c-0.489-1.115-0.199-2.419,0.718-3.22c0.917-0.804,2.248-0.916,3.287-0.282L453.52,359.522c1.007,0.614,1.519,1.795,1.278,2.95
					c-0.241,1.152-1.184,2.031-2.352,2.191L256.38,391.576C256.251,391.593,256.124,391.602,255.998,391.602z M174.191,195.695
					l83.516,190.07l186.224-25.562L174.191,195.695z"/>
			</g>
			<g id="XMLID_2301_">
				<polygon fill="#F9F9F9" points="215.202,526.646 256.731,388.713 452.799,361.801 				"/>
				<path fill="#2F2F2F" d="M215.202,529.435c-0.576,0-1.151-0.178-1.641-0.532c-0.959-0.697-1.373-1.924-1.031-3.06l41.529-137.936
					c0.314-1.045,1.21-1.811,2.291-1.959l196.068-26.911c1.273-0.176,2.509,0.548,2.977,1.75s0.051,2.568-1.009,3.303
					L216.792,528.938C216.313,529.27,215.757,529.435,215.202,529.435z M258.885,391.231l-38.71,128.572l221.471-153.657
					L258.885,391.231z"/>
			</g>
			<g id="XMLID_2307_">
				<polygon fill="#F9F9F9" points="452.609,361.142 478.035,229.721 347.724,297.75 				"/>
				<path fill="#2F2F2F" d="M452.609,364.074c-0.527,0-1.052-0.142-1.517-0.422l-104.887-63.395
					c-0.904-0.548-1.445-1.542-1.412-2.601c0.031-1.059,0.634-2.017,1.571-2.507l130.313-68.028
					c0.998-0.521,2.206-0.425,3.107,0.248c0.902,0.673,1.342,1.803,1.126,2.908L455.486,361.7c-0.182,0.941-0.812,1.733-1.688,2.122
					C453.419,363.99,453.014,364.074,452.609,364.074z M353.699,297.936l96.828,58.521l23.476-121.324L353.699,297.936z"/>
			</g>
			<g id="XMLID_2308_">
				<polygon fill="#F9F9F9" points="478.035,229.721 524.071,275.042 467.773,282.769 				"/>
				<path fill="#2F2F2F" d="M467.773,285.701c-0.8,0-1.571-0.327-2.129-0.916c-0.65-0.687-0.929-1.645-0.75-2.573l10.264-53.048
					c0.206-1.061,0.979-1.922,2.011-2.243c1.032-0.318,2.155-0.046,2.926,0.71l46.034,45.321c0.796,0.784,1.077,1.953,0.726,3.013
					c-0.352,1.062-1.276,1.829-2.383,1.981l-56.298,7.728C468.037,285.692,467.906,285.701,467.773,285.701z M479.877,235.646
					l-8.448,43.662l46.336-6.36L479.877,235.646z"/>
			</g>
			<g id="XMLID_2310_">
				<polygon fill="#F9F9F9" points="256.731,388.713 77.607,291.636 215.757,297.226 				"/>
				<path fill="#2F2F2F" d="M256.731,391.501c-0.454,0-0.91-0.108-1.328-0.337L76.278,294.087c-1.14-0.616-1.702-1.938-1.358-3.189
					c0.344-1.25,1.495-2.098,2.801-2.046l138.15,5.589c1.057,0.043,2,0.681,2.432,1.646l40.975,91.487
					c0.488,1.091,0.229,2.371-0.647,3.184C258.099,391.247,257.418,391.501,256.731,391.501z M89.495,294.908l161.324,87.43
					l-36.901-82.396L89.495,294.908z"/>
			</g>
		</g>
	</g>
</g>
</svg>
